<?xml version="1.0" encoding="UTF-8" standalone="no"?>
<!DOCTYPE svg PUBLIC "-//W3C//DTD SVG 1.1//EN" "http://www.w3.org/Graphics/SVG/1.1/DTD/svg11.dtd">
<svg width="100%" height="100%" viewBox="0 0 128 128" version="1.1" xmlns="http://www.w3.org/2000/svg" xmlns:xlink="http://www.w3.org/1999/xlink" xml:space="preserve" xmlns:serif="http://www.serif.com/" style="fill-rule:evenodd;clip-rule:evenodd;stroke-linejoin:round;stroke-miterlimit:2;">
    <g id="container">
        <path id="four-three" d="M73.5,41.523L73.5,28.723L60.7,28.723L60.7,41.523L73.5,41.523ZM72,30.223L62.2,30.223L62.2,40.023L72,40.023L72,30.223Z" style="fill:#019bc6;"/>
        <path id="four-two" d="M73.5,52.8L73.5,40L60.7,40L60.7,52.8L73.5,52.8ZM72,41.5L62.2,41.5L62.2,51.3L72,51.3L72,41.5Z" style="fill:#019bc6;"/>
        <path id="three-two" d="M62.2,52.8L62.2,40L49.4,40L49.4,52.8L62.2,52.8ZM60.7,41.5L50.9,41.5L50.9,51.3L60.7,51.3L60.7,41.5Z" style="fill:#019bc6;"/>
        <path id="two-two" d="M50.9,52.8L50.9,40L38.1,40L38.1,52.8L50.9,52.8ZM49.4,41.5L39.6,41.5L39.6,51.3L49.4,51.3L49.4,41.5Z" style="fill:#019bc6;"/>
        <path id="five-one" d="M84.8,64L84.8,51.2L72,51.2L72,64L84.8,64ZM83.3,52.7L73.5,52.7L73.5,62.5L83.3,62.5L83.3,52.7Z" style="fill:#019bc6;"/>
        <path id="four-one" d="M73,63.5L73,51.7L61.2,51.7L61.2,63.5L73,63.5ZM72,52.7L62.2,52.7L62.2,62.5L72,62.5L72,52.7Z" style="fill:#019bc6;"/>
        <path id="three-one" d="M61.7,63.5L61.7,51.7L49.9,51.7L49.9,63.5L61.7,63.5ZM60.7,52.7L50.9,52.7L50.9,62.5L60.7,62.5L60.7,52.7Z" style="fill:#019bc6;"/>
        <path id="two-one" d="M50.4,63.5L50.4,51.7L38.6,51.7L38.6,63.5L50.4,63.5ZM49.4,52.7L39.6,52.7L39.6,62.5L49.4,62.5L49.4,52.7Z" style="fill:#019bc6;"/>
        <path id="one-one" d="M39.6,64L39.6,51.2L26.8,51.2L26.8,64L39.6,64ZM38.1,52.7L28.3,52.7L28.3,62.5L38.1,62.5L38.1,52.7Z" style="fill:#019bc6;"/>
    </g>
    <path id="whale" d="M26.5,62.2L85.1,62.3L90.8,62.3C93.4,62.3 96.1,61.8 98.6,61C99.8,60.6 101.2,60 102.4,59.3C100.8,57.2 100,54.6 99.8,52C99.5,48.5 100.2,43.9 102.6,41.2L103.8,39.8L105.2,40.9C108.8,43.8 111.7,47.7 112.3,52.3C116.6,51 121.6,51.3 125.4,53.5L126.9,54.4L126.1,56C122.9,62.2 116.2,64.2 109.7,63.8C99.9,88.1 78.7,99.6 52.9,99.6C39.6,99.6 27.4,94.6 20.4,82.8L20.3,82.6L19.3,80.5C16.9,75.3 16.2,69.6 16.7,63.9L16.9,62.2L26.5,62.2ZM56,97.8C49.3,94.6 45.7,90.3 43.6,85.6C41.1,86.3 38.1,86.8 34.7,87C33.4,87.1 32,87.1 30.6,87.1C28.9,87.1 27.2,87.1 25.4,87C31.4,93 39,97.7 52.9,97.8L56,97.8ZM48.8,78.3C50.3,78.3 51.5,79.5 51.5,81C51.5,82.5 50.3,83.7 48.8,83.7C47.3,83.7 46.1,82.5 46.1,81C46.1,79.5 47.3,78.3 48.8,78.3ZM48.8,79.1C49,79.1 49.3,79.1 49.5,79.2C49.3,79.3 49.1,79.6 49.1,79.9C49.1,80.3 49.5,80.7 49.9,80.7C50.2,80.7 50.5,80.5 50.6,80.3C50.7,80.5 50.7,80.8 50.7,81C50.7,82.1 49.8,82.9 48.8,82.9C47.7,82.9 46.9,82 46.9,81C46.9,80 47.7,79.1 48.8,79.1Z" style="fill:#019bc6;"/>
</svg>
