<?xml version="1.0" encoding="UTF-8" standalone="no"?>
<!DOCTYPE svg PUBLIC "-//W3C//DTD SVG 1.1//EN" "http://www.w3.org/Graphics/SVG/1.1/DTD/svg11.dtd">
<svg width="100%" height="100%" viewBox="0 0 128 128" version="1.1" xmlns="http://www.w3.org/2000/svg" xmlns:xlink="http://www.w3.org/1999/xlink" xml:space="preserve" xmlns:serif="http://www.serif.com/" style="fill-rule:evenodd;clip-rule:evenodd;stroke-linejoin:round;stroke-miterlimit:2;">
    <g id="redis">
        <path id="redis-bot" d="M126.7,76.462L126.7,88.7C126.7,90 125.2,91.4 121.8,93.1C115.1,96.6 80.4,110.8 73,114.7C65.6,118.6 61.5,118.5 55.7,115.7C49.9,112.9 13,98.1 6.3,94.9C3,93.3 1.3,92 1.3,90.7L1.3,78.351C1.638,79.509 3.314,80.752 6.3,82.2C13,85.4 49.9,100.3 55.7,103.1C61.5,105.9 65.6,106 73,102.1C80.4,98.2 115.1,84 121.8,80.5C124.86,78.902 126.481,77.616 126.7,76.462Z" style="fill:#d82c20;fill-rule:nonzero;"/>
        <path id="redis-mid" d="M126.7,55.762L126.7,68C126.7,69.3 125.2,70.7 121.8,72.5C115.1,76 80.4,90.2 73,94.1C65.6,97.9 61.5,97.9 55.7,95.1C49.9,92.3 13,77.4 6.3,74.2C3,72.6 1.3,71.3 1.3,70L1.3,57.776C1.711,58.899 3.377,60.104 6.3,61.5C13,64.7 49.9,79.6 55.7,82.4C61.5,85.2 65.6,85.2 73,81.4C80.4,77.5 115.1,63.3 121.8,59.8C124.86,58.202 126.481,56.916 126.7,55.762Z" style="fill:#d82c20;fill-rule:nonzero;"/>
        <path id="redis-top" d="M1.201,35.9C1.14,34.633 2.74,33.454 6,32.2C12.5,29.6 49.2,15.2 57,12.5C64.8,9.7 67.4,9.6 74,12C80.6,14.4 115.1,28.1 121.6,30.5C125.53,31.908 127.224,33.178 126.6,34.674L126.6,46.6C126.7,47.9 125.2,49.2 121.8,51C115.1,54.5 80.4,68.7 73,72.6C65.6,76.4 61.5,76.4 55.7,73.6C49.9,70.9 13,56 6.3,52.8C3,51.2 1.2,49.9 1.2,48.6L1.2,35.9L1.201,35.9ZM66.5,54.5L46.2,46.1L75.3,41.7L66.5,54.5ZM91.4,42.1L74.3,35.3L93.3,27.7L110.5,34.5L93.3,41.3L91.4,42.1ZM38.4,29.4C46.955,29.4 53.9,32.089 53.9,35.4C53.9,38.711 46.955,41.4 38.4,41.4C29.845,41.4 22.9,38.711 22.9,35.4C22.9,32.089 29.845,29.4 38.4,29.4ZM80.4,26.1L69.6,27.3L67.1,33.1L63.2,26.6L50.7,25.5L60,22.1L57.2,16.9L66,20.3L74.2,17.6L72,23L80.4,26.1Z" style="fill:#d82c20;"/>
    </g>
</svg>
