<?xml version="1.0" encoding="UTF-8" standalone="no"?>
<!DOCTYPE svg PUBLIC "-//W3C//DTD SVG 1.1//EN" "http://www.w3.org/Graphics/SVG/1.1/DTD/svg11.dtd">
<svg width="100%" height="100%" viewBox="0 0 128 128" version="1.1"
    xmlns="http://www.w3.org/2000/svg"
    xmlns:xlink="http://www.w3.org/1999/xlink" xml:space="preserve"
    xmlns:serif="http://www.serif.com/" style="fill-rule:evenodd;clip-rule:evenodd;stroke-linejoin:round;stroke-miterlimit:2;">
    <path id="html" d="M19.037,113.876L9.032,1.661L118.968,1.661L108.952,113.859L63.933,126.339L19.037,113.876ZM44.53,38.361L97.196,38.361L97.472,35.269L98.1,28.291L98.429,24.599L29.489,24.599L29.819,28.291L33.201,66.218L80.899,66.218L79.302,84.067L63.952,88.21L63.952,88.211L63.939,88.215L48.612,84.075L47.633,73.1L33.816,73.1L35.744,94.709L63.937,102.535L64,102.518L64,102.516L92.167,94.709L92.374,92.384L95.608,56.151L95.943,52.455L45.788,52.455L44.53,38.361Z" style="fill:#e44d26;fill-rule:nonzero;"/>
</svg>
