<?xml version="1.0" encoding="UTF-8" standalone="no"?>
<!DOCTYPE svg PUBLIC "-//W3C//DTD SVG 1.1//EN" "http://www.w3.org/Graphics/SVG/1.1/DTD/svg11.dtd">
<svg width="100%" height="100%" viewBox="0 0 128 128" version="1.1" xmlns="http://www.w3.org/2000/svg" xmlns:xlink="http://www.w3.org/1999/xlink" xml:space="preserve" xmlns:serif="http://www.serif.com/" style="fill-rule:evenodd;clip-rule:evenodd;stroke-linejoin:round;stroke-miterlimit:2;">
    <path id="postgresql" d="M75.458,125.256C71.091,125.256 68.247,123.567 66.52,121.936C63.913,119.476 62.879,116.307 62.261,114.414L61.994,113.624C60.75,110.266 60.328,105.431 60.078,99.205C60.04,98.27 60.014,97.307 59.985,96.286C59.964,95.539 59.938,94.602 59.9,93.622C58.327,94.372 56.657,94.9 54.938,95.19C51.859,95.716 48.549,95.546 45.098,94.683C42.663,94.074 40.133,92.812 38.691,90.863C34.488,94.544 30.479,94.045 28.295,93.316C24.442,92.031 20.994,88.42 17.753,82.279C15.444,77.904 13.211,72.204 11.115,65.336C7.465,53.376 5.146,40.779 4.94,36.643C4.292,23.698 7.777,14.44 15.296,9.129C27.157,0.751 45.128,5.678 51.68,7.915C56.082,5.262 61.261,3.971 67.113,4.064C70.256,4.115 73.249,4.391 76.029,4.887C78.929,3.975 84.657,2.666 91.214,2.748C103.295,2.892 113.306,7.6 120.163,16.363C125.057,22.615 122.637,35.744 120.76,43.014C118.118,53.24 113.489,64.116 107.803,73.584C109.347,73.595 111.584,73.41 114.764,72.753C121.038,71.458 122.873,74.822 123.371,76.328C125.366,82.37 116.694,86.936 113.989,88.192C110.523,89.801 104.872,90.781 100.244,90.569L100.042,90.556L98.826,90.449L98.59,92.454C98.279,104.453 96.565,112.052 93.038,117.073C89.341,122.337 84.203,123.812 79.677,124.782C78.133,125.112 76.73,125.256 75.458,125.256ZM101.51,87.231C99.604,87.231 97.847,87.029 96.513,86.583C96.511,86.595 96.511,86.598 96.51,86.605C96.23,90.437 94.537,103.262 93.751,107.816C92.305,116.203 88.566,120.007 79.957,121.853C78.494,122.166 77.165,122.306 75.957,122.307C67.725,122.307 65.117,115.788 64.05,113.122C62.742,109.851 62.293,98.691 62.386,87.848C62.348,87.883 62.352,87.88 62.335,87.896C59.349,90.674 55.575,92.125 51.252,92.125C49.5,92.125 47.656,91.886 45.773,91.415C43.822,90.927 40.533,89.458 40.583,87.045C40.64,84.338 44.577,83.526 46.059,83.221C51.413,82.118 51.762,81.676 53.435,79.551C53.777,79.118 54.177,78.61 54.671,78.027C54.659,77.908 54.65,77.789 54.644,77.669C52.209,77.623 49.826,76.979 47.666,75.802C47.637,75.831 47.627,75.843 47.607,75.864C46.176,77.387 42.278,81.595 38.107,86.613C35.63,89.592 33.256,90.466 31.321,90.466C30.601,90.464 29.887,90.345 29.205,90.116C23.858,88.332 18.765,79.624 14.067,64.231C10.491,52.514 8.225,40.284 8.026,36.309C7.437,24.525 10.471,16.188 17.046,11.531C28.835,3.178 47.913,9.605 52.072,11.164C52.09,11.171 52.109,11.177 52.127,11.184C52.142,11.174 52.17,11.154 52.192,11.139C56.286,8.35 61.235,6.987 66.96,7.081C70.107,7.133 72.998,7.537 75.646,8.2C75.583,8.226 75.826,8.111 75.949,8.082L75.949,8.081C77.59,7.48 83.588,5.681 91.017,5.766C102.125,5.884 111.301,10.167 117.551,18.154C120.508,21.933 120.515,30.639 117.57,42.041C114.656,53.324 109.249,65.425 102.674,75.414C103.617,76.17 106.612,77.5 115.31,75.705C118.075,75.135 119.733,75.622 120.24,77.155C121.237,80.17 115.643,83.687 112.546,85.125C109.771,86.415 105.342,87.231 101.51,87.231ZM42.587,38.33C42.642,37.918 44.644,22.706 51.085,16.201C55.087,12.16 60.413,10.163 66.907,10.271C88.5,10.625 97.6,28.837 99.511,34.659C93.015,33.964 88.606,35.21 86.392,38.375C81.608,45.214 89.055,58.569 92.634,64.987C93.294,66.172 93.864,67.195 94.046,67.635C95.208,70.453 96.716,72.337 97.817,73.713C98.204,74.196 98.578,74.664 98.841,75.062C96.965,75.592 93.27,76.749 93.6,83.349C93.345,86.6 91.538,101.873 90.606,107.273C89.381,114.374 86.631,117.158 79.288,118.733C71.553,120.39 68.817,116.446 67.013,111.937C65.857,109.045 65.288,96.049 65.689,81.708C65.689,81.693 65.69,81.678 65.69,81.662C65.69,81.497 65.501,80.524 65.405,80.189C64.819,78.142 63.394,76.43 61.686,75.722C61.15,75.499 60.339,75.164 59.35,75.164C58.915,75.164 58.487,75.229 58.067,75.36C58.088,75.267 58.092,75.251 58.105,75.196C58.431,73.832 59.005,72.295 59.626,70.629L59.883,69.939C60.174,69.156 60.538,68.348 60.923,67.492C62.992,62.896 65.825,56.603 62.748,42.375C61.608,37.105 57.8,34.532 52.023,35.129C48.536,35.49 45.344,36.898 43.752,37.705C43.324,37.922 42.937,38.13 42.587,38.33ZM44.03,87.182C44.511,87.554 45.475,88.051 46.548,88.319C48.179,88.727 49.761,88.934 51.253,88.934C55.799,88.934 59.449,87.052 62.1,83.34C62.653,82.566 62.487,81.583 62.339,81.066C62.029,79.983 61.259,78.998 60.466,78.669C60.036,78.491 59.679,78.355 59.351,78.355C59.175,78.355 58.639,78.355 57.737,79.364C57.115,80.064 56.516,80.785 55.943,81.526C53.859,84.172 52.904,85.07 46.704,86.347C45.191,86.657 44.415,86.973 44.03,87.182ZM45,73.98C41.782,77.42 38.667,80.952 35.653,84.572C32.834,87.962 30.862,87.305 30.214,87.089C26.085,85.712 21.312,77.041 17.118,63.299C13.496,51.435 11.379,39.499 11.212,36.15C10.681,25.531 13.262,18.125 18.884,14.139C28.117,7.592 43.314,11.617 49.2,13.556C49.064,13.687 48.952,13.82 48.818,13.955C39.061,23.81 39.273,40.623 39.3,41.826C39.298,42.224 39.295,42.797 39.342,43.587C39.512,46.45 39.828,51.779 38.983,57.816C38.205,63.375 39.918,68.816 43.682,72.743C44.104,73.183 44.543,73.596 45,73.98ZM96.814,83.21C97.164,83.563 98.915,84.172 102.541,84.016C105.765,83.878 109.165,83.177 111.205,82.23C113.814,81.018 115.556,79.663 116.458,78.738L115.958,78.83C108.905,80.286 103.916,80.092 101.13,78.253C100.943,78.129 100.763,77.995 100.59,77.852C100.288,77.971 100.009,78.049 99.81,78.105C98.23,78.548 96.596,79.007 96.814,83.21ZM81,9.995C83.606,9.43 87.274,8.874 91.436,8.964C101.475,9.181 109.416,12.934 115.04,20.12C119.364,25.646 114.618,50.779 100.836,72.386C100.697,72.205 100.489,71.947 100.307,71.719L100.08,71.434C103.647,65.607 102.952,59.826 102.336,54.703C102.083,52.597 101.844,50.607 101.905,48.733C101.968,46.748 102.23,45.049 102.483,43.406C102.795,41.384 103.116,39.297 103.025,36.832C103.087,36.586 103.111,36.291 103.078,35.941C102.857,33.593 100.171,26.559 94.692,20.182C91.634,16.622 87.159,12.627 81,9.995ZM42.464,42.26L42.526,43.399C42.702,46.373 43.03,51.907 42.142,58.259C41.501,62.844 42.901,67.319 45.985,70.535C48.422,73.077 51.629,74.48 54.925,74.48L54.993,74.48C55.362,72.925 55.975,71.283 56.635,69.514L56.89,68.828C57.219,67.944 57.604,67.088 58.012,66.182C60.003,61.758 62.482,56.251 59.627,43.05C59.062,40.435 57.691,38.922 55.438,38.423C50.81,37.401 43.913,40.882 42.464,42.26ZM98.039,68.529C98.014,68.482 98.006,68.473 97.99,68.445C97.64,67.837 97.303,67.166 96.995,66.419C96.741,65.805 96.187,64.81 95.419,63.434C92.411,58.039 85.366,45.406 89.005,40.205C90.577,37.959 94.222,37.188 99.849,37.911C99.829,39.674 99.585,41.261 99.329,42.921C99.062,44.658 98.785,46.454 98.715,48.631C98.647,50.747 98.911,52.952 99.168,55.084C99.698,59.495 100.244,64.039 98.039,68.529ZM54.912,44.409L54.505,44.381C53.605,44.256 52.695,43.689 52.072,42.863C51.853,42.573 51.496,42.011 51.567,41.509C51.668,40.773 52.566,40.332 53.967,40.332C54.28,40.332 54.606,40.355 54.934,40.401C55.7,40.507 56.411,40.728 56.936,41.021C57.846,41.529 57.913,42.096 57.872,42.389C57.76,43.202 56.467,44.409 54.912,44.409ZM93.409,42.992C92.013,42.992 90.808,41.906 90.709,41.201C90.594,40.355 91.987,39.712 93.421,39.513C93.737,39.469 94.05,39.447 94.351,39.447C95.589,39.447 96.409,39.81 96.491,40.396C96.544,40.775 96.253,41.36 95.752,41.888C95.421,42.235 94.726,42.836 93.779,42.967L93.409,42.992Z" style="fill:#336791;"/>
</svg>
