<?xml version="1.0" encoding="UTF-8" standalone="no"?>
<!DOCTYPE svg PUBLIC "-//W3C//DTD SVG 1.1//EN" "http://www.w3.org/Graphics/SVG/1.1/DTD/svg11.dtd">
<svg width="100%" height="100%" viewBox="0 0 128 128" version="1.1"
   xmlns="http://www.w3.org/2000/svg"
   xmlns:xlink="http://www.w3.org/1999/xlink" xml:space="preserve"
   xmlns:serif="http://www.serif.com/" style="fill-rule:evenodd;clip-rule:evenodd;stroke-linejoin:round;stroke-miterlimit:2;">
   <path id="r-bot" d="M64,100.38C28.654,100.38 0,81.19 0,57.517C0,33.845 28.654,14.654 64,14.654C99.346,14.654 128,33.844 128,57.517C128,81.189 99.346,100.38 64,100.38ZM73.796,31.413C46.93,31.413 25.15,44.532 25.15,60.716C25.15,76.899 46.93,90.019 73.796,90.019C100.662,90.019 120.489,81.049 120.489,60.716C120.489,40.389 100.662,31.413 73.796,31.413Z" style="fill:#84838b;"/>
   <path id="r-top" d="M97.469,81.033C97.469,81.033 101.343,82.202 103.593,83.341C104.373,83.736 105.725,84.524 106.699,85.56C107.271,86.166 107.75,86.853 108.119,87.6L123.385,113.34L98.711,113.35L87.174,91.684C87.174,91.684 84.811,87.624 83.357,86.447C82.144,85.465 81.627,85.116 80.428,85.116L74.566,85.116L74.57,113.335L52.737,113.344L52.737,41.26L96.581,41.26C96.581,41.26 116.551,41.62 116.551,60.619C116.551,79.618 97.469,81.032 97.469,81.032L97.469,81.033ZM87.972,56.896L74.754,56.887L74.748,69.145L87.972,69.14C87.972,69.14 94.096,69.121 94.096,62.905C94.096,56.565 87.972,56.896 87.972,56.896Z" style="fill:#165caa;"/>
</svg>
