<?xml version="1.0" encoding="UTF-8" standalone="no"?>
<!DOCTYPE svg PUBLIC "-//W3C//DTD SVG 1.1//EN" "http://www.w3.org/Graphics/SVG/1.1/DTD/svg11.dtd">
<svg width="100%" height="100%" viewBox="0 0 128 128" version="1.1" xmlns="http://www.w3.org/2000/svg" xmlns:xlink="http://www.w3.org/1999/xlink" xml:space="preserve" xmlns:serif="http://www.serif.com/" style="fill-rule:evenodd;clip-rule:evenodd;stroke-linejoin:round;stroke-miterlimit:2;">
    <path id="rstudio" d="M64,0C28.6,0 0,28.6 0,64C0,99.4 28.6,128 64,128C99.4,128 128,99.4 128,64C128,28.6 99.3,0 64,0ZM41.595,89.8L41.595,84.347L43.415,84.206C44.664,84.118 45.915,84.07 47.167,84.062L49.098,84.062L49.098,37.996L48.16,37.869C47.644,37.799 45.956,37.621 44.408,37.472L41.595,37.202L41.595,34.692C41.595,32.36 41.622,32.197 41.985,32.392C43.568,33.239 52.685,33.462 57.815,32.78C62.017,32.222 69.31,32.355 71.85,33.037C77.333,34.509 80.96,37.683 82.674,42.51C83.391,44.528 83.491,48.357 82.89,50.734C81.987,54.306 80.5,56.782 78.025,58.835C76.543,60.065 73.178,61.865 71.88,62.125C71.483,62.204 71.108,62.349 71.048,62.446C70.988,62.544 74.171,67.518 78.123,73.5L85.307,84.376L92.574,84.24L92.574,89.8L87.332,89.792L82.092,89.785L73.272,76.551L64.455,63.317L55.277,63.317L55.277,84.061L64.326,84.061L64.326,89.8L41.595,89.8ZM66.753,57.911C70.229,57.361 74.018,55.137 75.726,52.648C78.237,48.985 77.263,43.658 73.432,40.101C72.075,38.841 71.227,38.471 68.638,38.001C66.514,37.615 59.978,37.547 56.932,37.879L55.388,38.047L55.33,48.13L55.273,58.212L55.993,58.318C57.359,58.518 64.663,58.243 66.753,57.911Z" style="fill:#75aadb;fill-rule:nonzero;"/>
</svg>
