<?xml version="1.0" encoding="UTF-8" standalone="no"?>
<!DOCTYPE svg PUBLIC "-//W3C//DTD SVG 1.1//EN" "http://www.w3.org/Graphics/SVG/1.1/DTD/svg11.dtd">
<svg width="100%" height="100%" viewBox="0 0 128 128" version="1.1" xmlns="http://www.w3.org/2000/svg" xmlns:xlink="http://www.w3.org/1999/xlink" xml:space="preserve" xmlns:serif="http://www.serif.com/" style="fill-rule:evenodd;clip-rule:evenodd;stroke-linejoin:round;stroke-miterlimit:2;">
    <path id="svelte" d="M119.838,16.936C105.553,-0.076 77.336,-5.118 56.942,5.696L21.113,24.696C16.266,27.225 12.107,30.567 8.901,34.51C5.695,38.453 3.514,42.909 2.497,47.593C2.044,49.695 1.813,51.839 1.809,53.989C1.831,59.82 3.549,65.56 6.816,70.719C3.753,74.591 1.662,78.939 0.67,83.501C-0.346,88.269 -0.204,93.212 1.085,97.913C2.375,102.646 4.787,107.117 8.181,111.065C22.465,128.076 50.745,133.118 71.076,122.305L106.868,103.304C111.712,100.772 115.866,97.426 119.064,93.479C122.261,89.532 124.431,85.072 125.434,80.386C125.894,78.279 126.125,76.142 126.122,74C126.113,68.18 124.417,62.449 121.177,57.291C124.239,53.422 126.33,49.078 127.324,44.52C127.768,42.411 127.994,40.275 128,38.134C128.002,30.539 125.148,23.134 119.838,16.956L119.838,16.936ZM53.44,112.667C51.087,113.171 48.687,113.426 46.28,113.427C41.685,113.428 37.158,112.502 33.087,110.727C29.017,108.953 25.524,106.384 22.908,103.24C19.714,99.524 17.998,95.069 18.001,90.5C18.003,89.212 18.137,87.928 18.401,86.667C18.616,85.718 18.905,84.788 19.266,83.885L19.942,82.177L21.769,83.333C26.012,85.924 30.753,87.897 35.789,89.167L37.117,89.5L36.992,90.604L36.992,91.177C36.989,92.558 37.506,93.907 38.469,95.031C39.247,95.989 40.295,96.775 41.521,97.319C42.777,97.87 44.133,98.155 45.504,98.156C46.228,98.158 46.95,98.082 47.657,97.927C48.424,97.76 49.166,97.49 49.861,97.125L85.651,78.031C86.724,77.465 87.608,76.682 88.219,75.755C88.829,74.828 89.147,73.787 89.143,72.729C89.133,71.348 88.603,70.004 87.628,68.885C86.838,67.939 85.784,67.167 84.557,66.633C83.301,66.094 81.947,65.818 80.58,65.823C79.856,65.821 79.134,65.898 78.427,66.053C77.663,66.216 76.926,66.486 76.237,66.854L62.592,74.104C60.296,75.307 57.85,76.2 55.319,76.76C52.979,77.262 50.574,77.518 48.158,77.52C43.564,77.52 39.039,76.594 34.969,74.822C30.899,73.05 27.405,70.484 24.786,67.344C21.596,63.626 19.88,59.172 19.879,54.604C19.881,53.319 20.015,52.037 20.279,50.771C20.892,47.955 22.2,45.276 24.123,42.904C26.045,40.531 28.539,38.517 31.446,36.99L67.274,18C69.522,16.81 71.974,15.91 74.547,15.333C76.887,14.834 79.292,14.583 81.707,14.583C86.312,14.573 90.851,15.493 94.935,17.264C99.019,19.034 102.525,21.604 105.154,24.75C108.325,28.477 110.019,32.934 109.999,37.5C109.997,38.792 109.862,40.08 109.598,41.344C109.383,42.292 109.095,43.222 108.734,44.125L108.058,45.833L106.231,44.719C101.991,42.124 97.249,40.151 92.211,38.885L90.883,38.542L91.008,37.437L91.008,36.865C91.008,35.48 90.492,34.13 89.531,33C88.742,32.055 87.691,31.284 86.465,30.75C85.211,30.211 83.86,29.934 82.495,29.937C81.778,29.95 81.065,30.041 80.368,30.208C79.599,30.368 78.857,30.639 78.165,31.01L42.337,50C41.487,50.441 40.736,51.05 40.128,51.79C39.561,52.481 39.165,53.295 38.97,54.167C38.882,54.529 38.827,54.899 38.807,55.271C38.806,56.649 39.322,57.993 40.284,59.115C41.072,60.06 42.124,60.832 43.349,61.365C44.603,61.904 45.954,62.181 47.319,62.177C48.043,62.179 48.765,62.102 49.472,61.947C50.241,61.785 50.983,61.515 51.676,61.146L65.346,53.854C67.641,52.649 70.087,51.756 72.619,51.198C74.972,50.694 77.372,50.439 79.779,50.438C84.375,50.438 88.902,51.363 92.974,53.135C97.046,54.907 100.543,57.474 103.164,60.615C106.354,64.332 108.07,68.786 108.071,73.355C108.074,74.654 107.936,75.951 107.658,77.229C107.049,80.046 105.741,82.726 103.819,85.099C101.896,87.471 99.401,89.484 96.491,91.01L60.726,110C58.427,111.209 55.977,112.106 53.441,112.667L53.44,112.667Z" style="fill:#ff3e00;fill-rule:nonzero;"/>
</svg>
